<svg width="50" height="53" viewBox="0 0 50 53" fill="none" xmlns="http://www.w3.org/2000/svg">
<g filter="url(#filter0_d_3_110)">
<rect y="1.90735e-06" width="50" height="50" rx="16" fill="#F1F4F7"/>
</g>
<path d="M24.5 19.8182C22.9931 19.8182 21.5479 20.4168 20.4824 21.4824C19.4168 22.5479 18.8182 23.9931 18.8182 25.5C18.8182 27.0069 19.4168 28.4521 20.4824 29.5177C21.5479 30.5832 22.9931 31.1818 24.5 31.1818C26.0069 31.1818 27.4521 30.5832 28.5177 29.5177C29.5832 28.4521 30.1818 27.0069 30.1818 25.5C30.1818 23.9931 29.5832 22.5479 28.5177 21.4824C27.4521 20.4168 26.0069 19.8182 24.5 19.8182Z" fill="#2E4051"/>
<path fill-rule="evenodd" clip-rule="evenodd" d="M24.5 13C24.8014 13 25.0904 13.1197 25.3036 13.3329C25.5167 13.546 25.6364 13.835 25.6364 14.1364V15.2728C25.6364 15.5741 25.5167 15.8632 25.3036 16.0763C25.0904 16.2894 24.8014 16.4091 24.5 16.4091C24.1986 16.4091 23.9096 16.2894 23.6965 16.0763C23.4834 15.8632 23.3637 15.5741 23.3637 15.2728V14.1364C23.3637 13.835 23.4834 13.546 23.6965 13.3329C23.9096 13.1197 24.1986 13 24.5 13ZM14.6057 15.6057C14.8188 15.3927 15.1078 15.273 15.4091 15.273C15.7104 15.273 15.9994 15.3927 16.2125 15.6057L17.9171 17.3103C18.1241 17.5246 18.2386 17.8116 18.236 18.1096C18.2334 18.4075 18.1139 18.6925 17.9032 18.9032C17.6925 19.1139 17.4075 19.2334 17.1096 19.236C16.8116 19.2386 16.5246 19.1241 16.3102 18.9171L14.6057 17.2125C14.3927 16.9994 14.273 16.7104 14.273 16.4091C14.273 16.1078 14.3927 15.8188 14.6057 15.6057ZM34.3943 15.6057C34.6074 15.8188 34.7271 16.1078 34.7271 16.4091C34.7271 16.7104 34.6074 16.9994 34.3943 17.2125L32.6898 18.9171C32.585 19.0256 32.4596 19.1122 32.3209 19.1717C32.1823 19.2313 32.0332 19.2626 31.8823 19.2639C31.7314 19.2653 31.5818 19.2365 31.4421 19.1794C31.3025 19.1222 31.1756 19.0378 31.0689 18.9312C30.9622 18.8245 30.8778 18.6976 30.8207 18.5579C30.7635 18.4183 30.7348 18.2686 30.7361 18.1177C30.7374 17.9669 30.7688 17.8177 30.8283 17.6791C30.8879 17.5405 30.9744 17.4151 31.083 17.3103L32.7875 15.6057C33.0006 15.3927 33.2896 15.273 33.5909 15.273C33.8923 15.273 34.1812 15.3927 34.3943 15.6057ZM12 25.5C12 25.1986 12.1197 24.9096 12.3329 24.6965C12.546 24.4834 12.835 24.3637 13.1364 24.3637H14.2727C14.5741 24.3637 14.8632 24.4834 15.0763 24.6965C15.2894 24.9096 15.4091 25.1986 15.4091 25.5C15.4091 25.8014 15.2894 26.0904 15.0763 26.3036C14.8632 26.5167 14.5741 26.6364 14.2727 26.6364H13.1364C12.835 26.6364 12.546 26.5167 12.3329 26.3036C12.1197 26.0904 12 25.8014 12 25.5ZM33.5909 25.5C33.5909 25.1986 33.7107 24.9096 33.9238 24.6965C34.1369 24.4834 34.4259 24.3637 34.7273 24.3637H35.8637C36.165 24.3637 36.4541 24.4834 36.6672 24.6965C36.8803 24.9096 37 25.1986 37 25.5C37 25.8014 36.8803 26.0904 36.6672 26.3036C36.4541 26.5167 36.165 26.6364 35.8637 26.6364H34.7273C34.4259 26.6364 34.1369 26.5167 33.9238 26.3036C33.7107 26.0904 33.5909 25.8014 33.5909 25.5ZM17.9171 32.083C18.1301 32.2961 18.2498 32.5851 18.2498 32.8864C18.2498 33.1877 18.1301 33.4767 17.9171 33.6898L16.2125 35.3943C15.9982 35.6013 15.7112 35.7159 15.4132 35.7133C15.1153 35.7107 14.8302 35.5912 14.6195 35.3805C14.4089 35.1698 14.2893 34.8848 14.2868 34.5868C14.2842 34.2889 14.3987 34.0018 14.6057 33.7875L16.3102 32.083C16.5233 31.8699 16.8123 31.7503 17.1137 31.7503C17.415 31.7503 17.704 31.8699 17.9171 32.083ZM31.083 32.083C31.2961 31.8699 31.5851 31.7503 31.8864 31.7503C32.1877 31.7503 32.4767 31.8699 32.6898 32.083L34.3943 33.7875C34.6013 34.0018 34.7159 34.2889 34.7133 34.5868C34.7107 34.8848 34.5912 35.1698 34.3805 35.3805C34.1698 35.5912 33.8848 35.7107 33.5868 35.7133C33.2889 35.7159 33.0018 35.6013 32.7875 35.3943L31.083 33.6898C30.8699 33.4767 30.7503 33.1877 30.7503 32.8864C30.7503 32.5851 30.8699 32.2961 31.083 32.083ZM24.5 34.5909C24.8014 34.5909 25.0904 34.7107 25.3036 34.9238C25.5167 35.1369 25.6364 35.4259 25.6364 35.7273V36.8637C25.6364 37.165 25.5167 37.4541 25.3036 37.6672C25.0904 37.8803 24.8014 38 24.5 38C24.1986 38 23.9096 37.8803 23.6965 37.6672C23.4834 37.4541 23.3637 37.165 23.3637 36.8637V35.7273C23.3637 35.4259 23.4834 35.1369 23.6965 34.9238C23.9096 34.7107 24.1986 34.5909 24.5 34.5909Z" fill="#2E4051"/>
<path d="M34.9535 28.6945C35.1802 28.1545 34.5324 27.6945 33.9891 27.9345C32.903 28.4112 31.7296 28.6564 30.5435 28.6545C25.8934 28.6545 22.1245 24.9611 22.1245 20.4045C22.1228 18.866 22.5599 17.3589 23.3845 16.0601C23.7001 15.5623 23.3212 14.8734 22.7434 15.0201C18.2889 16.1567 15 20.1256 15 24.8467C15 30.4545 19.6389 35 25.3623 35C29.6957 35 33.4068 32.3945 34.9535 28.6945Z" fill="white"/>
<path d="M29.0124 15.1145C28.4235 14.7212 27.7212 15.4234 28.1135 16.0123L28.8135 17.0623C29.0974 17.488 29.249 17.9883 29.249 18.5001C29.249 19.0118 29.0974 19.5121 28.8135 19.9378L28.1135 20.9878C27.7212 21.5767 28.4246 22.2789 29.0135 21.8856L30.0624 21.1856C30.4881 20.9016 30.9884 20.7501 31.5002 20.7501C32.0119 20.7501 32.5122 20.9016 32.938 21.1856L33.988 21.8856C34.5769 22.2789 35.2791 21.5767 34.8858 20.9878L34.1857 19.9378C33.9018 19.5121 33.7502 19.0118 33.7502 18.5001C33.7502 17.9883 33.9018 17.488 34.1857 17.0623L34.8858 16.0123C35.2791 15.4234 34.5769 14.7212 33.9869 15.1145L32.938 15.8145C32.5122 16.0985 32.0119 16.25 31.5002 16.25C30.9884 16.25 30.4881 16.0985 30.0624 15.8145L29.0124 15.1145Z" fill="white"/>
<defs>
<filter id="filter0_d_3_110" x="0" y="1.90735e-06" width="50" height="53" filterUnits="userSpaceOnUse" color-interpolation-filters="sRGB">
<feFlood flood-opacity="0" result="BackgroundImageFix"/>
<feColorMatrix in="SourceAlpha" type="matrix" values="0 0 0 0 0 0 0 0 0 0 0 0 0 0 0 0 0 0 127 0" result="hardAlpha"/>
<feOffset dy="3"/>
<feComposite in2="hardAlpha" operator="out"/>
<feColorMatrix type="matrix" values="0 0 0 0 0.807843 0 0 0 0 0.85098 0 0 0 0 0.890196 0 0 0 1 0"/>
<feBlend mode="normal" in2="BackgroundImageFix" result="effect1_dropShadow_3_110"/>
<feBlend mode="normal" in="SourceGraphic" in2="effect1_dropShadow_3_110" result="shape"/>
</filter>
</defs>
</svg>
