<svg width="50" height="53" viewBox="0 0 50 53" fill="none" xmlns="http://www.w3.org/2000/svg">
<g filter="url(#filter0_d_501_4)">
<rect width="50" height="50" rx="16" fill="#F1F4F7"/>
</g>
<path d="M24.5 19.8182C22.9931 19.8182 21.5479 20.4168 20.4823 21.4823C19.4168 22.5479 18.8182 23.9931 18.8182 25.5C18.8182 27.0069 19.4168 28.4521 20.4823 29.5177C21.5479 30.5832 22.9931 31.1818 24.5 31.1818C26.0069 31.1818 27.4521 30.5832 28.5177 29.5177C29.5832 28.4521 30.1818 27.0069 30.1818 25.5C30.1818 23.9931 29.5832 22.5479 28.5177 21.4823C27.4521 20.4168 26.0069 19.8182 24.5 19.8182Z" fill="#2E4051"/>
<path fill-rule="evenodd" clip-rule="evenodd" d="M24.5 13C24.8014 13 25.0904 13.1197 25.3035 13.3328C25.5166 13.5459 25.6364 13.835 25.6364 14.1364V15.2727C25.6364 15.5741 25.5166 15.8631 25.3035 16.0763C25.0904 16.2894 24.8014 16.4091 24.5 16.4091C24.1986 16.4091 23.9096 16.2894 23.6965 16.0763C23.4834 15.8631 23.3636 15.5741 23.3636 15.2727V14.1364C23.3636 13.835 23.4834 13.5459 23.6965 13.3328C23.9096 13.1197 24.1986 13 24.5 13ZM14.6057 15.6057C14.8188 15.3926 15.1078 15.273 15.4091 15.273C15.7104 15.273 15.9994 15.3926 16.2125 15.6057L17.917 17.3102C18.124 17.5245 18.2386 17.8116 18.236 18.1095C18.2334 18.4075 18.1139 18.6925 17.9032 18.9032C17.6925 19.1139 17.4075 19.2334 17.1095 19.236C16.8116 19.2386 16.5245 19.124 16.3102 18.917L14.6057 17.2125C14.3926 16.9994 14.273 16.7104 14.273 16.4091C14.273 16.1078 14.3926 15.8188 14.6057 15.6057ZM34.3943 15.6057C34.6074 15.8188 34.727 16.1078 34.727 16.4091C34.727 16.7104 34.6074 16.9994 34.3943 17.2125L32.6898 18.917C32.5849 19.0256 32.4596 19.1122 32.3209 19.1717C32.1823 19.2313 32.0332 19.2626 31.8823 19.2639C31.7314 19.2652 31.5818 19.2365 31.4421 19.1793C31.3024 19.1222 31.1756 19.0378 31.0689 18.9311C30.9622 18.8244 30.8778 18.6976 30.8207 18.5579C30.7635 18.4182 30.7348 18.2686 30.7361 18.1177C30.7374 17.9668 30.7687 17.8177 30.8283 17.6791C30.8878 17.5404 30.9744 17.4151 31.083 17.3102L32.7875 15.6057C33.0006 15.3926 33.2896 15.273 33.5909 15.273C33.8922 15.273 34.1812 15.3926 34.3943 15.6057ZM12 25.5C12 25.1986 12.1197 24.9096 12.3328 24.6965C12.5459 24.4834 12.835 24.3636 13.1364 24.3636H14.2727C14.5741 24.3636 14.8631 24.4834 15.0763 24.6965C15.2894 24.9096 15.4091 25.1986 15.4091 25.5C15.4091 25.8014 15.2894 26.0904 15.0763 26.3035C14.8631 26.5166 14.5741 26.6364 14.2727 26.6364H13.1364C12.835 26.6364 12.5459 26.5166 12.3328 26.3035C12.1197 26.0904 12 25.8014 12 25.5ZM33.5909 25.5C33.5909 25.1986 33.7106 24.9096 33.9237 24.6965C34.1369 24.4834 34.4259 24.3636 34.7273 24.3636H35.8636C36.165 24.3636 36.4541 24.4834 36.6672 24.6965C36.8803 24.9096 37 25.1986 37 25.5C37 25.8014 36.8803 26.0904 36.6672 26.3035C36.4541 26.5166 36.165 26.6364 35.8636 26.6364H34.7273C34.4259 26.6364 34.1369 26.5166 33.9237 26.3035C33.7106 26.0904 33.5909 25.8014 33.5909 25.5ZM17.917 32.083C18.1301 32.2961 18.2498 32.585 18.2498 32.8864C18.2498 33.1877 18.1301 33.4767 17.917 33.6898L16.2125 35.3943C15.9982 35.6013 15.7111 35.7159 15.4132 35.7133C15.1152 35.7107 14.8302 35.5912 14.6195 35.3805C14.4088 35.1698 14.2893 34.8848 14.2867 34.5868C14.2841 34.2889 14.3987 34.0018 14.6057 33.7875L16.3102 32.083C16.5233 31.8699 16.8123 31.7502 17.1136 31.7502C17.415 31.7502 17.7039 31.8699 17.917 32.083ZM31.083 32.083C31.2961 31.8699 31.585 31.7502 31.8864 31.7502C32.1877 31.7502 32.4767 31.8699 32.6898 32.083L34.3943 33.7875C34.6013 34.0018 34.7159 34.2889 34.7133 34.5868C34.7107 34.8848 34.5912 35.1698 34.3805 35.3805C34.1698 35.5912 33.8848 35.7107 33.5868 35.7133C33.2889 35.7159 33.0018 35.6013 32.7875 35.3943L31.083 33.6898C30.8699 33.4767 30.7502 33.1877 30.7502 32.8864C30.7502 32.585 30.8699 32.2961 31.083 32.083ZM24.5 34.5909C24.8014 34.5909 25.0904 34.7106 25.3035 34.9237C25.5166 35.1369 25.6364 35.4259 25.6364 35.7273V36.8636C25.6364 37.165 25.5166 37.4541 25.3035 37.6672C25.0904 37.8803 24.8014 38 24.5 38C24.1986 38 23.9096 37.8803 23.6965 37.6672C23.4834 37.4541 23.3636 37.165 23.3636 36.8636V35.7273C23.3636 35.4259 23.4834 35.1369 23.6965 34.9237C23.9096 34.7106 24.1986 34.5909 24.5 34.5909Z" fill="#2E4051"/>
<defs>
<filter id="filter0_d_501_4" x="0" y="0" width="50" height="53" filterUnits="userSpaceOnUse" color-interpolation-filters="sRGB">
<feFlood flood-opacity="0" result="BackgroundImageFix"/>
<feColorMatrix in="SourceAlpha" type="matrix" values="0 0 0 0 0 0 0 0 0 0 0 0 0 0 0 0 0 0 127 0" result="hardAlpha"/>
<feOffset dy="3"/>
<feComposite in2="hardAlpha" operator="out"/>
<feColorMatrix type="matrix" values="0 0 0 0 0.807843 0 0 0 0 0.85098 0 0 0 0 0.890196 0 0 0 1 0"/>
<feBlend mode="normal" in2="BackgroundImageFix" result="effect1_dropShadow_501_4"/>
<feBlend mode="normal" in="SourceGraphic" in2="effect1_dropShadow_501_4" result="shape"/>
</filter>
</defs>
</svg>
